<?xml version="1.0" encoding="UTF-8" standalone="no"?>
<!-- Created with Inkscape (http://www.inkscape.org/) -->

<svg
   xmlns:dc="http://purl.org/dc/elements/1.1/"
   xmlns:cc="http://creativecommons.org/ns#"
   xmlns:rdf="http://www.w3.org/1999/02/22-rdf-syntax-ns#"
   xmlns:svg="http://www.w3.org/2000/svg"
   xmlns="http://www.w3.org/2000/svg"
   xmlns:sodipodi="http://sodipodi.sourceforge.net/DTD/sodipodi-0.dtd"
   xmlns:inkscape="http://www.inkscape.org/namespaces/inkscape"
   width="50mm"
   height="50mm"
   viewBox="0 0 50 50"
   version="1.1"
   id="svg8"
   inkscape:version="0.92.3 (2405546, 2018-03-11)"
   sodipodi:docname="logo.svg">
  <defs
     id="defs2" />
  <sodipodi:namedview
     id="base"
     pagecolor="#ffffff"
     bordercolor="#666666"
     borderopacity="1.0"
     inkscape:pageopacity="0.0"
     inkscape:pageshadow="2"
     inkscape:zoom="3.959798"
     inkscape:cx="109.84593"
     inkscape:cy="109.36981"
     inkscape:document-units="mm"
     inkscape:current-layer="layer1"
     showgrid="false"
     inkscape:snap-bbox="true"
     inkscape:bbox-paths="true"
     inkscape:bbox-nodes="true"
     inkscape:snap-bbox-edge-midpoints="true"
     inkscape:snap-bbox-midpoints="true"
     inkscape:window-width="3840"
     inkscape:window-height="1537"
     inkscape:window-x="-8"
     inkscape:window-y="-8"
     inkscape:window-maximized="1" />
  <metadata
     id="metadata5">
    <rdf:RDF>
      <cc:Work
         rdf:about="">
        <dc:format>image/svg+xml</dc:format>
        <dc:type
           rdf:resource="http://purl.org/dc/dcmitype/StillImage" />
        <dc:title></dc:title>
      </cc:Work>
    </rdf:RDF>
  </metadata>
  <g
     inkscape:label="Layer 1"
     inkscape:groupmode="layer"
     id="layer1"
     transform="translate(0,-247)">
    <path
       id="path1003"
       style="fill:#000000;stroke-width:0.08466666"
       d="m 16.895751,249.90012 c -11.0268776,0 -11.4444456,0.006 -12.0137366,0.1633 -1.402379,0.38862 -2.385068,1.28664 -2.925918,2.67322 -0.161132,0.41264 -0.165365,0.72585 -0.165365,12.40337 0,11.24019 0.0093,11.9961 0.147794,12.23441 0.08117,0.1397 0.147534,0.3034 0.147796,0.36381 7.94e-4,0.16248 0.523123,0.94996 0.840774,1.26762 0.560502,0.56049 1.199997,0.92831 1.953887,1.12395 0.17212,0.0447 6.6758106,0.0781 15.5153306,0.0791 9.178336,0 15.218706,0.0327 15.218706,0.0796 0,0.0428 -0.73618,0.81439 -1.63607,1.71463 -1.35389,1.3544 -1.65903,1.70453 -1.7694,2.02933 -0.1195,0.35131 -0.12046,0.43278 -0.007,0.77671 0.1458,0.44286 0.57516,0.8745 0.92656,0.9312 v 0 c 0.13325,0.022 0.35188,0.0246 0.48576,0.007 0.13388,-0.018 0.3033,-0.032 0.3762,-0.032 0.0729,0 1.49335,-1.3575 3.1564,-3.01635 2.69487,-2.68809 3.03506,-3.05785 3.13056,-3.39876 0.22345,-0.79809 0.23914,-0.77735 -3.06028,-4.07676 -1.63645,-1.63647 -3.084,-3.03167 -3.21634,-3.10007 -0.3222,-0.16666 -0.76657,-0.15705 -1.10536,0.0238 -0.37872,0.20214 -0.55337,0.41783 -0.70849,0.87384 -0.23322,0.68569 -0.10914,0.87902 1.77561,2.75902 0.90853,0.90622 1.65209,1.68312 1.65209,1.72701 0,0.0497 -5.64732,0.0801 -14.948436,0.0801 -14.5668096,0 -14.9573556,-0.004 -15.3055266,-0.1628 -0.40169,-0.18298 -0.562075,-0.34261 -0.764294,-0.76068 -0.127291,-0.26312 -0.139009,-1.27209 -0.139009,-11.61531 0,-7.46022 0.02895,-11.34515 0.08475,-11.37965 0.0466,-0.0288 0.08423,-0.11308 0.08423,-0.18709 0,-0.074 0.141534,-0.27157 0.314193,-0.43923 l 0.313677,-0.30491 11.5915376,-0.0222 c 11.553928,-0.022 11.592458,-0.0214 11.872148,0.15142 0.15433,0.0954 0.35938,0.33615 0.45578,0.53536 0.16634,0.34435 0.1757,0.50289 0.1757,3.21016 0,3.2675 0.0351,3.55404 0.49145,3.96925 0.28734,0.26154 0.35655,0.28372 0.86506,0.28372 0.44764,0 0.59931,-0.0368 0.79892,-0.19379 0.56763,-0.44648 0.55387,-0.34692 0.55087,-4.06281 -0.002,-2.97185 -0.0198,-3.4123 -0.14987,-3.78634 -0.17753,-0.51046 -0.67574,-1.39732 -0.78496,-1.39732 -0.0431,0 -0.078,-0.0382 -0.078,-0.0847 0,-0.0882 -0.30437,-0.42323 -0.38447,-0.42323 -0.0252,0 -0.12196,-0.0704 -0.21446,-0.15658 -0.26092,-0.2431 -0.99719,-0.58013 -1.58802,-0.72658 -0.47363,-0.11736 -1.865689,-0.13282 -11.960508,-0.13282 z m -0.02739,8.33334 c -0.09127,0 -0.185264,0.008 -0.282154,0.0228 -0.28167,0.0428 -0.65813,0.38727 -3.336229,3.05302 -2.692641,2.68023 -3.030408,3.04618 -3.12591,3.38741 -0.2233979,0.79788 -0.2382199,0.77875 3.052011,4.069 1.63185,1.63184 3.086984,3.02654 3.233394,3.09954 0.34871,0.17394 0.752435,0.16817 1.096573,-0.0156 0.378722,-0.20211 0.553374,-0.41733 0.708486,-0.87334 0.23323,-0.68569 0.109146,-0.87899 -1.775603,-2.75899 -0.908529,-0.90623 -1.652095,-1.68365 -1.652095,-1.72755 0,-0.0497 5.647322,-0.0796 14.948445,-0.0796 14.5668,0 14.95735,0.004 15.30552,0.1628 0.40169,0.18298 0.56208,0.34208 0.7643,0.76014 0.12729,0.26313 0.13901,1.26963 0.13901,11.57449 0,8.6505 -0.0238,11.34129 -0.10231,11.52282 -0.0564,0.13025 -0.23564,0.36981 -0.39844,0.53276 l -0.29609,0.29663 -11.59155,0.0222 c -11.553936,0.022 -11.592459,0.0214 -11.872148,-0.15139 -0.154331,-0.0954 -0.359386,-0.33668 -0.455787,-0.53589 -0.167341,-0.3451 -0.175699,-0.50131 -0.175699,-3.30988 0,-1.97893 -0.03175,-3.05528 -0.09715,-3.27369 -0.05362,-0.17899 -0.234564,-0.45017 -0.402043,-0.60257 -0.278701,-0.2536 -0.351583,-0.27699 -0.857313,-0.27699 -0.447638,0 -0.599308,0.0368 -0.798918,0.19381 -0.56679,0.4458 -0.553971,0.35134 -0.553971,4.02818 0,3.0948 0.01193,3.3633 0.167434,3.81526 0.193138,0.56139 0.655423,1.40301 0.770493,1.40301 0.0432,0 0.0802,0.0477 0.0832,0.10594 0.0053,0.11578 0.785746,0.74104 0.925007,0.74104 0.0475,0 0.0863,0.0297 0.0863,0.0661 0,0.0845 0.411784,0.25632 1.058333,0.44182 0.468472,0.13444 1.40231,0.14672 12.002372,0.15762 11.11602,0.0114 11.51414,0.006 12.08453,-0.15193 1.40239,-0.38862 2.38506,-1.28614 2.92592,-2.67271 0.16113,-0.41262 0.16486,-0.72636 0.16486,-12.40388 0,-11.24019 -0.009,-11.9961 -0.14729,-12.23441 -0.0812,-0.1397 -0.1483,-0.3033 -0.1483,-0.36381 0,-0.16248 -0.52314,-0.94996 -0.84079,-1.26761 -0.5605,-0.5605 -1.2,-0.92832 -1.95387,-1.12395 -0.17214,-0.0447 -6.67582,-0.0776 -15.51534,-0.0786 -9.178345,0 -15.218713,-0.0332 -15.218713,-0.0801 0,-0.0427 0.736176,-0.81388 1.636074,-1.7141 1.370971,-1.37152 1.658491,-1.70217 1.773021,-2.03917 0.122809,-0.36134 0.123637,-0.44006 0.0098,-0.77412 -0.207224,-0.6082 -0.698513,-0.9498 -1.337384,-0.9467 z"
       inkscape:connector-curvature="0" />
  </g>
</svg>
